# xmcd
#
# Track frame offsets:
#	150
#	17929
#	33727
#	53661
#	70749
#	87435
#	103173
#	119422
#
# Disc length: 1813 seconds
#
# Revision: 1
# Processed by: cddbd v1.5.2PL0 Copyright (c) Steve Scherf et al.
# Submitted via: audiograbber 1.83.01
#
DISCID=6c071308
DTITLE=Ilse DeLange - Next to Me
DYEAR=2010
DGENRE=Country
TTITLE0=Next To Me
TTITLE1=Eyes Straight Ahead
TTITLE2=Almost
TTITLE3=Beautiful Distraction
TTITLE4=Carousel
TTITLE5=Untouchable
TTITLE6=Time Out
TTITLE7=Paper Plane
EXTD=
EXTT0=
EXTT1=
EXTT2=
EXTT3=
EXTT4=
EXTT5=
EXTT6=
EXTT7=
PLAYORDER=
